<?xml version="1.0" standalone="no"?>
<!DOCTYPE svg PUBLIC "-//W3C//DTD SVG 20010904//EN"
 "http://www.w3.org/TR/2001/REC-SVG-20010904/DTD/svg10.dtd">
<svg version="1.0" xmlns="http://www.w3.org/2000/svg"
 width="192.000000pt" height="192.000000pt" viewBox="0 0 192.000000 192.000000"
 preserveAspectRatio="xMidYMid meet">
<metadata>
Created by potrace 1.14, written by Peter Selinger 2001-2017
</metadata>
<g transform="translate(0.000000,192.000000) scale(0.100000,-0.100000)"
fill="#000000" stroke="none">
<path d="M770 1889 c-47 -10 -92 -20 -100 -23 -70 -20 -219 -99 -285 -151 -71
-56 -185 -176 -185 -194 0 -5 -3 -11 -7 -13 -36 -15 -132 -236 -158 -363 -15
-70 -12 -271 4 -350 64 -303 253 -545 526 -671 299 -138 630 -112 910 70 492
322 563 1016 147 1436 -143 144 -296 226 -497 265 -97 19 -253 16 -355 -6z
m290 -94 c264 -27 518 -207 639 -453 28 -56 59 -138 67 -177 15 -74 18 -112
17 -205 0 -74 -7 -130 -22 -189 -22 -85 -76 -213 -92 -219 -5 -2 -9 -8 -9 -14
0 -19 -91 -128 -153 -182 -130 -115 -277 -184 -434 -203 -79 -10 -201 -7 -265
6 -29 6 -62 13 -73 15 -11 2 -51 17 -88 32 l-68 28 1 394 c2 424 4 449 57 539
85 145 280 218 439 163 215 -74 319 -321 219 -520 -37 -73 -99 -135 -169 -169
-71 -35 -107 -42 -231 -44 -96 -2 -99 0 -93 73 l3 35 116 6 c103 5 122 9 163
33 61 36 84 60 114 125 21 45 24 63 20 121 -10 137 -107 236 -239 244 -133 8
-246 -73 -274 -198 -12 -57 -15 -759 -3 -772 8 -8 319 -8 358 0 14 3 39 8 55
12 17 3 54 14 83 25 250 90 420 294 468 559 3 19 6 73 6 120 -1 237 -118 452
-327 598 -98 68 -265 112 -405 108 -137 -5 -206 -23 -325 -84 -107 -55 -238
-191 -292 -302 -71 -145 -77 -180 -77 -472 -1 -142 -4 -258 -7 -258 -8 0 -45
77 -66 135 -61 170 -55 397 14 575 25 63 109 200 155 250 39 43 144 130 156
130 7 0 12 5 12 10 0 6 5 10 11 10 6 0 23 8 37 18 33 23 150 70 193 77 18 3
35 8 39 10 3 2 33 7 65 10 33 4 61 8 62 9 3 3 82 -2 143 -9z m35 -229 c214
-49 395 -224 449 -432 22 -85 26 -158 15 -244 -9 -66 -51 -196 -68 -210 -3 -3
-13 -18 -21 -34 -21 -41 -116 -137 -173 -175 -113 -76 -225 -107 -389 -106
l-103 0 -2 61 -2 62 132 4 c106 4 144 9 192 28 277 106 394 415 259 682 -54
107 -202 221 -314 244 -46 9 -154 10 -210 1 -59 -9 -174 -67 -227 -114 -58
-53 -109 -133 -134 -211 -20 -63 -22 -90 -24 -432 -2 -201 -3 -370 -4 -377 -1
-12 -24 5 -88 64 l-34 33 4 337 c2 186 7 350 10 366 62 242 263 424 512 463
22 3 41 7 42 8 3 3 155 -12 178 -18z m-77 -451 c113 -46 127 -202 24 -270 -31
-20 -50 -24 -117 -26 -138 -2 -124 -12 -123 94 1 60 6 102 16 122 41 83 117
113 200 80z"/>
</g>
</svg>
